# xmcd
#
# Track frame offsets:
# 150
# 14789
# 30350
# 50995
# 65701
# 81541
# 98631
# 119905
# 135374
# 154398
#
# Disc length: 2222 seconds
#
#
# Revision: 0
# Processed by: cddbd v1.5PL3 Copyright (c) Steve Scherf et al.
# Submitted via: FreeRIP 2.35 
#
DISCID=9308ac0a
DTITLE=12th Night - 12th Night and Beyond
DYEAR=2004
DGENRE=Blues
TTITLE0=In the Valley of the Night
TTITLE1=I Want to be Ready
TTITLE2=Early in the Morning
TTITLE3=Get With It
TTITLE4=Lead Me Jesus
TTITLE5=I'm Gonna Run to the City of Refuge
TTITLE6=You Shall Not Put God to the Test
TTITLE7=Amazing Grace
TTITLE8=Bill's Jam
TTITLE9=Not I
EXTD=
EXTT0=Chris Dunfield
EXTT1=Ben Harper
EXTT2=Chris Dunfield
EXTT3=Chris Dunfield
EXTT4=Chris Dunfield
EXTT5=Blind Willie Johnson
EXTT6=Bill Veley
EXTT7=Traditional
EXTT8=Bill Veley
EXTT9=Sam McClain/Chris Dunfield
PLAYORDER=
